<svg width="32" height="32" viewBox="0 0 32 32" fill="none" xmlns="http://www.w3.org/2000/svg">
<path d="M1.32 8.81503C1.5 8.24003 2.0875 7.83566 2.6875 7.85378C10.6044 7.85441 18.5213 7.85378 26.4381 7.85441C26.9781 7.85816 27.5363 7.81378 28.0519 8.00878C29.015 8.33503 29.7263 9.25003 29.8394 10.2563C30.0894 11.84 30.3538 13.4213 30.5981 15.0057C30.8013 16.3488 30.7369 17.71 30.7469 19.0625C30.7431 19.8338 30.7538 20.605 30.7419 21.3763C30.7175 22.0269 30.1494 22.6 29.4988 22.63C28.9994 22.6482 28.4994 22.6325 27.9994 22.6375C28.1519 21.8494 28.0275 21.0082 27.6231 20.3119C27.0925 19.3707 26.0856 18.7119 25.005 18.6294C24.0775 18.5425 23.1244 18.8744 22.4438 19.5094C21.5894 20.2825 21.1963 21.51 21.4281 22.6375C17.3625 22.6375 13.2969 22.6375 9.23063 22.6375C9.385 21.8413 9.25625 20.9907 8.84188 20.29C8.32188 19.3838 7.35875 18.7438 6.31688 18.6375C5.35375 18.5225 4.35313 18.8625 3.6525 19.5307C2.81 20.3057 2.43 21.5257 2.66 22.6444C1.93125 22.6744 1.245 22.0544 1.255 21.315C1.25 17.3975 1.25563 13.4794 1.2525 9.56128C1.25438 9.31191 1.23625 9.05503 1.32 8.81503ZM2.59438 9.93816C2.59313 11.4894 2.59438 13.04 2.59438 14.5913C4.38125 14.5919 6.16875 14.5919 7.95625 14.5913C7.95625 12.8038 7.95625 11.0169 7.95625 9.22941C6.38813 9.23128 4.82 9.22441 3.2525 9.23253C2.88313 9.22691 2.56938 9.57191 2.59438 9.93816ZM9.29688 9.22941C9.29625 11.0169 9.29688 12.8038 9.29688 14.5913C11.0844 14.5925 12.8713 14.5913 14.6588 14.5919C14.66 12.8044 14.66 11.0169 14.6588 9.22878C12.8713 9.22941 11.0844 9.22878 9.29688 9.22941ZM16 9.22941C16 11.0169 16 12.8044 16 14.5913C17.7881 14.59 19.5763 14.5957 21.3644 14.5888C21.36 12.8025 21.3638 11.0163 21.3625 9.22941C19.575 9.22878 17.7875 9.22941 16 9.22941ZM22.7025 9.23003C22.705 11.0188 22.7 12.8075 22.705 14.5963C23.3769 15.2632 24.045 15.9338 24.7138 16.6038C26.2669 16.605 27.8194 16.6032 29.3725 16.6044C29.3681 16.0644 29.2956 15.5275 29.2219 14.9932C28.9688 13.435 28.7194 11.8757 28.4631 10.3175C28.3675 9.71066 27.7956 9.23253 27.1838 9.23128C25.69 9.22691 24.1963 9.22941 22.7025 9.23003Z" fill="#BDBDBD"/>
<path d="M5.63499 19.6413C6.67687 19.4831 7.76374 20.1275 8.12999 21.1138C8.44312 21.8975 8.28562 22.8431 7.73312 23.4813C7.14437 24.1956 6.11187 24.4906 5.23437 24.2C4.56562 23.9888 4.00499 23.4638 3.75624 22.8075C3.49749 22.1431 3.56437 21.3613 3.93749 20.7531C4.29812 20.1525 4.93937 19.7288 5.63499 19.6413Z" fill="#BDBDBD"/>
<path d="M24.4487 19.6356C25.1494 19.5531 25.8819 19.8056 26.3762 20.3119C27.0044 20.9288 27.2262 21.9144 26.9262 22.7419C26.6444 23.5725 25.86 24.2019 24.9869 24.2944C24.1075 24.4081 23.1919 23.9656 22.7281 23.2119C22.3044 22.5494 22.2525 21.67 22.5944 20.9625C22.9306 20.2406 23.6556 19.7188 24.4487 19.6356Z" fill="#BDBDBD"/>
</svg>
