<svg width="35" height="35" viewBox="0 0 35 35" fill="none" xmlns="http://www.w3.org/2000/svg">
<path d="M1.44371 9.64135C1.64059 9.01244 2.28317 8.57016 2.93942 8.58998C11.5985 8.59067 20.2576 8.58998 28.9167 8.59067C29.5073 8.59477 30.1177 8.54623 30.6817 8.75951C31.7351 9.11635 32.513 10.1171 32.6368 11.2177C32.9102 12.9499 33.1994 14.6794 33.4667 16.4123C33.6888 17.8814 33.6184 19.3703 33.6294 20.8496C33.6253 21.6931 33.6369 22.5367 33.6239 23.3802C33.5972 24.0918 32.9758 24.7187 32.2642 24.7515C31.718 24.7713 31.1712 24.7542 30.6243 24.7597C30.7911 23.8977 30.655 22.9776 30.2128 22.2161C29.6324 21.1866 28.5311 20.4661 27.3492 20.3758C26.3347 20.2808 25.2922 20.6438 24.5478 21.3383C23.6133 22.1839 23.1834 23.5265 23.437 24.7597C18.9902 24.7597 14.5434 24.7597 10.096 24.7597C10.2648 23.8888 10.124 22.9584 9.67076 22.1921C9.10201 21.2009 8.04859 20.5009 6.90904 20.3847C5.85563 20.2589 4.76119 20.6308 3.99488 21.3616C3.0734 22.2092 2.65777 23.5436 2.90934 24.7672C2.11227 24.8 1.36168 24.1219 1.37262 23.3132C1.36715 19.0285 1.3733 14.743 1.36988 10.4576C1.37193 10.1848 1.35211 9.90385 1.44371 9.64135ZM2.83756 10.8698C2.83619 12.5664 2.83756 14.2624 2.83756 15.9591C4.79195 15.9598 6.74703 15.9598 8.70211 15.9591C8.70211 14.004 8.70211 12.0497 8.70211 10.0946C6.98697 10.0966 5.27184 10.0891 3.55738 10.098C3.15338 10.0918 2.81022 10.4692 2.83756 10.8698ZM10.1684 10.0946C10.1677 12.0497 10.1684 14.004 10.1684 15.9591C12.1235 15.9605 14.0779 15.9591 16.033 15.9598C16.0343 14.0047 16.0343 12.0497 16.033 10.0939C14.0779 10.0946 12.1235 10.0939 10.1684 10.0946ZM17.5 10.0946C17.5 12.0497 17.5 14.0047 17.5 15.9591C19.4557 15.9578 21.4115 15.9639 23.3672 15.9564C23.3625 14.0027 23.3666 12.049 23.3652 10.0946C21.4101 10.0939 19.455 10.0946 17.5 10.0946ZM24.8308 10.0953C24.8336 12.0517 24.8281 14.0081 24.8336 15.9646C25.5684 16.694 26.2992 17.4275 27.0306 18.1603C28.7294 18.1617 30.4274 18.1596 32.1261 18.161C32.1213 17.5704 32.0421 16.9831 31.9614 16.3987C31.6845 14.6945 31.4118 12.9889 31.1315 11.2847C31.0269 10.6209 30.4014 10.098 29.7322 10.0966C28.0984 10.0918 26.4646 10.0946 24.8308 10.0953Z" fill="#22BB9C"/>
<path d="M6.16325 21.4826C7.30281 21.3097 8.49157 22.0144 8.89216 23.0932C9.23464 23.9504 9.06238 24.9847 8.45808 25.6826C7.81413 26.464 6.68484 26.7866 5.72507 26.4687C4.99363 26.2377 4.38044 25.6635 4.10837 24.9457C3.82536 24.219 3.89851 23.3639 4.30661 22.6987C4.70105 22.0418 5.40241 21.5783 6.16325 21.4826Z" fill="#22BB9C"/>
<path d="M26.7408 21.4764C27.5071 21.3862 28.3082 21.6624 28.849 22.2161C29.536 22.8908 29.7786 23.9688 29.4505 24.8739C29.1422 25.7824 28.2843 26.4708 27.3293 26.5719C26.3675 26.6964 25.366 26.2124 24.8588 25.388C24.3953 24.6633 24.3386 23.7015 24.7125 22.9277C25.0803 22.1381 25.8733 21.5673 26.7408 21.4764Z" fill="#22BB9C"/>
</svg>
