<svg width="5" height="4" viewBox="0 0 5 4" fill="none" xmlns="http://www.w3.org/2000/svg">
<path d="M2.5 3.66477C2.21354 3.66477 1.95194 3.59493 1.7152 3.45526C1.47846 3.31321 1.28906 3.12382 1.14702 2.88707C1.00734 2.65033 0.9375 2.38873 0.9375 2.10227C0.9375 1.81345 1.00734 1.55185 1.14702 1.31747C1.28906 1.08073 1.47846 0.892519 1.7152 0.752841C1.95194 0.610795 2.21354 0.539773 2.5 0.539773C2.78883 0.539773 3.05043 0.610795 3.2848 0.752841C3.52154 0.892519 3.70975 1.08073 3.84943 1.31747C3.99148 1.55185 4.0625 1.81345 4.0625 2.10227C4.0625 2.38873 3.99148 2.65033 3.84943 2.88707C3.70975 3.12382 3.52154 3.31321 3.2848 3.45526C3.05043 3.59493 2.78883 3.66477 2.5 3.66477Z" fill="#BFD4E4"/>
</svg>
