<svg width="16" height="16" viewBox="0 0 16 16" fill="none" xmlns="http://www.w3.org/2000/svg">
<path d="M12.0267 9.03341C11.7467 9.30674 11.5867 9.70008 11.6267 10.1201C11.6867 10.8401 12.3467 11.3667 13.0667 11.3667H14.3333V12.1601C14.3333 13.5401 13.2067 14.6667 11.8267 14.6667H4.17334C2.79334 14.6667 1.66667 13.5401 1.66667 12.1601V7.67342C1.66667 6.29342 2.79334 5.16675 4.17334 5.16675H11.8267C13.2067 5.16675 14.3333 6.29342 14.3333 7.67342V8.63342H12.9867C12.6133 8.63342 12.2733 8.78007 12.0267 9.03341Z" stroke="#BDBDBD" stroke-linecap="round" stroke-linejoin="round"/>
<path d="M1.66667 8.27337V5.22674C1.66667 4.4334 2.15334 3.72671 2.89334 3.44671L8.18667 1.44671C9.01334 1.13337 9.90001 1.74673 9.90001 2.63339V5.16672" stroke="#BDBDBD" stroke-linecap="round" stroke-linejoin="round"/>
<path d="M15.0392 9.3134V10.6868C15.0392 11.0534 14.7459 11.3534 14.3725 11.3667H13.0659C12.3459 11.3667 11.6859 10.8401 11.6259 10.1201C11.5859 9.70008 11.7459 9.30674 12.0259 9.03341C12.2725 8.78007 12.6125 8.63342 12.9859 8.63342H14.3725C14.7459 8.64676 15.0392 8.94673 15.0392 9.3134Z" stroke="#BDBDBD" stroke-linecap="round" stroke-linejoin="round"/>
<path d="M4.66667 8H9.33334" stroke="#BDBDBD" stroke-linecap="round" stroke-linejoin="round"/>
</svg>
